<svg xmlns="http://www.w3.org/2000/svg" width="980" height="726" viewBox="0 0 980 726">
<rect width="100%" height="100%" fill="#ffffff"/>
<text x="32" y="38" font-size="22" font-weight="800">XSA Loss Slices</text>
<text x="32" y="66" font-size="12" fill="#444">Baseline mode: record. Positive delta means lower loss than baseline.</text>
<text x="32" y="102" font-size="12" font-weight="700">bucket</text>
<text x="270" y="102" font-size="12" font-weight="700">count</text>
<text x="350" y="102" font-size="12" font-weight="700">record mean</text>
<text x="482" y="102" font-size="12" font-weight="700">sum / win%</text>
<rect x="24" y="116" width="932" height="24" fill="#fbfbfb"/>
<text x="32" y="132" font-size="11">all</text>
<text x="270" y="132" font-size="11">16384</text>
<rect x="350" y="117" width="124" height="18" fill="#ffffff" stroke="#ffffff"/>
<text x="356" y="131" font-size="10">0</text>
<text x="482" y="131" font-size="10">0 / 0.0%</text>
<rect x="24" y="140" width="932" height="24" fill="#ffffff"/>
<text x="32" y="156" font-size="11">target_freq_1</text>
<text x="270" y="156" font-size="11">2692</text>
<rect x="350" y="141" width="124" height="18" fill="#ffffff" stroke="#ffffff"/>
<text x="356" y="155" font-size="10">0</text>
<text x="482" y="155" font-size="10">0 / 0.0%</text>
<rect x="24" y="164" width="932" height="24" fill="#fbfbfb"/>
<text x="32" y="180" font-size="11">target_freq_2_4</text>
<text x="270" y="180" font-size="11">3439</text>
<rect x="350" y="165" width="124" height="18" fill="#ffffff" stroke="#ffffff"/>
<text x="356" y="179" font-size="10">0</text>
<text x="482" y="179" font-size="10">0 / 0.0%</text>
<rect x="24" y="188" width="932" height="24" fill="#ffffff"/>
<text x="32" y="204" font-size="11">target_freq_5_16</text>
<text x="270" y="204" font-size="11">3379</text>
<rect x="350" y="189" width="124" height="18" fill="#ffffff" stroke="#ffffff"/>
<text x="356" y="203" font-size="10">0</text>
<text x="482" y="203" font-size="10">0 / 0.0%</text>
<rect x="24" y="212" width="932" height="24" fill="#fbfbfb"/>
<text x="32" y="228" font-size="11">target_freq_gt_16</text>
<text x="270" y="228" font-size="11">6874</text>
<rect x="350" y="213" width="124" height="18" fill="#ffffff" stroke="#ffffff"/>
<text x="356" y="227" font-size="10">0</text>
<text x="482" y="227" font-size="10">0 / 0.0%</text>
<rect x="24" y="236" width="932" height="24" fill="#ffffff"/>
<text x="32" y="252" font-size="11">target_whitespace</text>
<text x="270" y="252" font-size="11">386</text>
<rect x="350" y="237" width="124" height="18" fill="#ffffff" stroke="#ffffff"/>
<text x="356" y="251" font-size="10">0</text>
<text x="482" y="251" font-size="10">0 / 0.0%</text>
<rect x="24" y="260" width="932" height="24" fill="#fbfbfb"/>
<text x="32" y="276" font-size="11">target_punctuation</text>
<text x="270" y="276" font-size="11">2132</text>
<rect x="350" y="261" width="124" height="18" fill="#ffffff" stroke="#ffffff"/>
<text x="356" y="275" font-size="10">0</text>
<text x="482" y="275" font-size="10">0 / 0.0%</text>
<rect x="24" y="284" width="932" height="24" fill="#ffffff"/>
<text x="32" y="300" font-size="11">target_delimiter</text>
<text x="270" y="300" font-size="11">2535</text>
<rect x="350" y="285" width="124" height="18" fill="#ffffff" stroke="#ffffff"/>
<text x="356" y="299" font-size="10">0</text>
<text x="482" y="299" font-size="10">0 / 0.0%</text>
<rect x="24" y="308" width="932" height="24" fill="#fbfbfb"/>
<text x="32" y="324" font-size="11">input_repeated_in_context</text>
<text x="270" y="324" font-size="11">8086</text>
<rect x="350" y="309" width="124" height="18" fill="#ffffff" stroke="#ffffff"/>
<text x="356" y="323" font-size="10">0</text>
<text x="482" y="323" font-size="10">0 / 0.0%</text>
<rect x="24" y="332" width="932" height="24" fill="#ffffff"/>
<text x="32" y="348" font-size="11">target_seen_in_context</text>
<text x="270" y="348" font-size="11">8124</text>
<rect x="350" y="333" width="124" height="18" fill="#ffffff" stroke="#ffffff"/>
<text x="356" y="347" font-size="10">0</text>
<text x="482" y="347" font-size="10">0 / 0.0%</text>
<rect x="24" y="356" width="932" height="24" fill="#fbfbfb"/>
<text x="32" y="372" font-size="11">prev_bigram_repeated</text>
<text x="270" y="372" font-size="11">2597</text>
<rect x="350" y="357" width="124" height="18" fill="#ffffff" stroke="#ffffff"/>
<text x="356" y="371" font-size="10">0</text>
<text x="482" y="371" font-size="10">0 / 0.0%</text>
<rect x="24" y="380" width="932" height="24" fill="#ffffff"/>
<text x="32" y="396" font-size="11">prev_trigram_repeated</text>
<text x="270" y="396" font-size="11">1129</text>
<rect x="350" y="381" width="124" height="18" fill="#ffffff" stroke="#ffffff"/>
<text x="356" y="395" font-size="10">0</text>
<text x="482" y="395" font-size="10">0 / 0.0%</text>
<rect x="24" y="404" width="932" height="24" fill="#fbfbfb"/>
<text x="32" y="420" font-size="11">target_nearest_distance_none</text>
<text x="270" y="420" font-size="11">8260</text>
<rect x="350" y="405" width="124" height="18" fill="#ffffff" stroke="#ffffff"/>
<text x="356" y="419" font-size="10">0</text>
<text x="482" y="419" font-size="10">0 / 0.0%</text>
<rect x="24" y="428" width="932" height="24" fill="#ffffff"/>
<text x="32" y="444" font-size="11">target_farthest_distance_none</text>
<text x="270" y="444" font-size="11">8260</text>
<rect x="350" y="429" width="124" height="18" fill="#ffffff" stroke="#ffffff"/>
<text x="356" y="443" font-size="10">0</text>
<text x="482" y="443" font-size="10">0 / 0.0%</text>
<rect x="24" y="452" width="932" height="24" fill="#fbfbfb"/>
<text x="32" y="468" font-size="11">target_nearest_distance_1_16</text>
<text x="270" y="468" font-size="11">2120</text>
<rect x="350" y="453" width="124" height="18" fill="#ffffff" stroke="#ffffff"/>
<text x="356" y="467" font-size="10">0</text>
<text x="482" y="467" font-size="10">0 / 0.0%</text>
<rect x="24" y="476" width="932" height="24" fill="#ffffff"/>
<text x="32" y="492" font-size="11">target_farthest_distance_1_16</text>
<text x="270" y="492" font-size="11">483</text>
<rect x="350" y="477" width="124" height="18" fill="#ffffff" stroke="#ffffff"/>
<text x="356" y="491" font-size="10">0</text>
<text x="482" y="491" font-size="10">0 / 0.0%</text>
<rect x="24" y="500" width="932" height="24" fill="#fbfbfb"/>
<text x="32" y="516" font-size="11">target_nearest_distance_17_128</text>
<text x="270" y="516" font-size="11">4479</text>
<rect x="350" y="501" width="124" height="18" fill="#ffffff" stroke="#ffffff"/>
<text x="356" y="515" font-size="10">0</text>
<text x="482" y="515" font-size="10">0 / 0.0%</text>
<rect x="24" y="524" width="932" height="24" fill="#ffffff"/>
<text x="32" y="540" font-size="11">target_farthest_distance_17_128</text>
<text x="270" y="540" font-size="11">2464</text>
<rect x="350" y="525" width="124" height="18" fill="#ffffff" stroke="#ffffff"/>
<text x="356" y="539" font-size="10">0</text>
<text x="482" y="539" font-size="10">0 / 0.0%</text>
<rect x="24" y="548" width="932" height="24" fill="#fbfbfb"/>
<text x="32" y="564" font-size="11">target_nearest_distance_129_512</text>
<text x="270" y="564" font-size="11">1369</text>
<rect x="350" y="549" width="124" height="18" fill="#ffffff" stroke="#ffffff"/>
<text x="356" y="563" font-size="10">0</text>
<text x="482" y="563" font-size="10">0 / 0.0%</text>
<rect x="24" y="572" width="932" height="24" fill="#ffffff"/>
<text x="32" y="588" font-size="11">target_farthest_distance_129_512</text>
<text x="270" y="588" font-size="11">3888</text>
<rect x="350" y="573" width="124" height="18" fill="#ffffff" stroke="#ffffff"/>
<text x="356" y="587" font-size="10">0</text>
<text x="482" y="587" font-size="10">0 / 0.0%</text>
<rect x="24" y="596" width="932" height="24" fill="#fbfbfb"/>
<text x="32" y="612" font-size="11">target_nearest_distance_513_2048</text>
<text x="270" y="612" font-size="11">156</text>
<rect x="350" y="597" width="124" height="18" fill="#ffffff" stroke="#ffffff"/>
<text x="356" y="611" font-size="10">0</text>
<text x="482" y="611" font-size="10">0 / 0.0%</text>
<rect x="24" y="620" width="932" height="24" fill="#ffffff"/>
<text x="32" y="636" font-size="11">target_farthest_distance_513_2048</text>
<text x="270" y="636" font-size="11">1289</text>
<rect x="350" y="621" width="124" height="18" fill="#ffffff" stroke="#ffffff"/>
<text x="356" y="635" font-size="10">0</text>
<text x="482" y="635" font-size="10">0 / 0.0%</text>
<rect x="24" y="644" width="932" height="24" fill="#fbfbfb"/>
<text x="32" y="660" font-size="11">target_nearest_distance_gt_2048</text>
<text x="270" y="660" font-size="11">0</text>
<rect x="350" y="645" width="124" height="18" fill="#d9d9d9" stroke="#ffffff"/>
<text x="356" y="659" font-size="10">nan</text>
<text x="482" y="659" font-size="10">0 / nan%</text>
<rect x="24" y="668" width="932" height="24" fill="#ffffff"/>
<text x="32" y="684" font-size="11">target_farthest_distance_gt_2048</text>
<text x="270" y="684" font-size="11">0</text>
<rect x="350" y="669" width="124" height="18" fill="#d9d9d9" stroke="#ffffff"/>
<text x="356" y="683" font-size="10">nan</text>
<text x="482" y="683" font-size="10">0 / nan%</text>
</svg>